<svg width="11" height="11" viewBox="0 0 11 11" fill="none" xmlns="http://www.w3.org/2000/svg">
<path d="M5.18164 0.307617C6.04753 0.307617 6.8929 0.530924 7.71777 0.977539C8.54264 1.4196 9.18522 2.05534 9.64551 2.88477C10.1058 3.70964 10.3359 4.57096 10.3359 5.46875C10.3359 6.35742 10.1081 7.21191 9.65234 8.03223C9.20117 8.85254 8.56543 9.49056 7.74512 9.94629C6.92936 10.3975 6.07487 10.623 5.18164 10.623C4.28841 10.623 3.43164 10.3975 2.61133 9.94629C1.79557 9.49056 1.15983 8.85254 0.704102 8.03223C0.248372 7.21191 0.0205078 6.35742 0.0205078 5.46875C0.0205078 4.57096 0.250651 3.70964 0.710938 2.88477C1.17578 2.05534 1.82064 1.4196 2.64551 0.977539C3.47038 0.530924 4.31576 0.307617 5.18164 0.307617ZM5.18164 1.16211C4.45703 1.16211 3.75065 1.34896 3.0625 1.72266C2.37891 2.0918 1.84342 2.62272 1.45605 3.31543C1.06868 4.00358 0.875 4.72135 0.875 5.46875C0.875 6.21159 1.06413 6.9248 1.44238 7.6084C1.8252 8.28743 2.3584 8.81836 3.04199 9.20117C3.72559 9.57943 4.4388 9.76855 5.18164 9.76855C5.92448 9.76855 6.6377 9.57943 7.32129 9.20117C8.00488 8.81836 8.53581 8.28743 8.91406 7.6084C9.29232 6.9248 9.48145 6.21159 9.48145 5.46875C9.48145 4.72135 9.28776 4.00358 8.90039 3.31543C8.51758 2.62272 7.9821 2.0918 7.29395 1.72266C6.60579 1.34896 5.90169 1.16211 5.18164 1.16211ZM6.83594 6.30273L7.67676 6.54883C7.54004 7.11849 7.24837 7.57422 6.80176 7.91602C6.3597 8.25326 5.82194 8.42188 5.18848 8.42188C4.38639 8.42188 3.7347 8.16211 3.2334 7.64258C2.7321 7.12305 2.48145 6.40299 2.48145 5.48242C2.48145 4.88086 2.59538 4.35905 2.82324 3.91699C3.05111 3.47038 3.37467 3.13542 3.79395 2.91211C4.21777 2.68424 4.70085 2.57031 5.24316 2.57031C5.84928 2.57031 6.35286 2.71615 6.75391 3.00781C7.15495 3.29492 7.42839 3.68685 7.57422 4.18359L6.76074 4.38184C6.62402 4.0446 6.42122 3.78711 6.15234 3.60938C5.88802 3.42708 5.57585 3.33594 5.21582 3.33594C4.69173 3.33594 4.25879 3.52279 3.91699 3.89648C3.57975 4.27018 3.41113 4.80566 3.41113 5.50293C3.41113 6.2002 3.57064 6.72884 3.88965 7.08887C4.21322 7.44434 4.63021 7.62207 5.14062 7.62207C5.55078 7.62207 5.91081 7.50358 6.2207 7.2666C6.5306 7.02962 6.73568 6.70833 6.83594 6.30273Z" fill="#8B929A"/>
</svg>
