<svg width="64" height="22" viewBox="0 0 64 22" fill="none" xmlns="http://www.w3.org/2000/svg">
<path fill-rule="evenodd" clip-rule="evenodd" d="M22.7844 2.17664H25.1293V0.5H22.7829C21.8509 0.5 21.0918 1.25257 21.0918 2.17664V4.52393H22.7829V2.17815C22.7831 2.1779 22.7833 2.17763 22.7836 2.17736C22.7839 2.17708 22.7842 2.17684 22.7844 2.17664Z" fill="#3A83F6"/>
<path fill-rule="evenodd" clip-rule="evenodd" d="M59.9629 0.5H62.3093C63.2413 0.5 64.0004 1.25257 64.0004 2.17664V4.52393H62.3093V2.17815C62.3091 2.1779 62.3088 2.17763 62.3086 2.17736C62.3083 2.17708 62.308 2.17684 62.3078 2.17664H59.9629V0.5Z" fill="#3A83F6"/>
<path fill-rule="evenodd" clip-rule="evenodd" d="M21.0918 19.8234V17.4971H22.7829V19.8219C22.7831 19.8221 22.7833 19.8224 22.7836 19.8227C22.7839 19.823 22.7842 19.8232 22.7844 19.8234H25.1293V21.5H22.7829C21.8509 21.5 21.0918 20.7475 21.0918 19.8234Z" fill="#3A83F6"/>
<path fill-rule="evenodd" clip-rule="evenodd" d="M62.3093 19.8219V17.4971H64.0004V19.8234C64.0004 20.7475 63.2413 21.5 62.3093 21.5H59.9629V19.8234H62.3078C62.308 19.8232 62.3083 19.823 62.3086 19.8227C62.3088 19.8224 62.3091 19.8221 62.3093 19.8219ZM62.3093 19.8234C62.3093 19.8235 62.3093 19.8235 62.3093 19.8235C62.3093 19.8235 62.3093 19.8235 62.3093 19.8235C62.3093 19.8235 62.3093 19.8235 62.3093 19.8234C62.3094 19.8234 62.3094 19.8234 62.3094 19.8234C62.3094 19.8234 62.3094 19.8234 62.3093 19.8234Z" fill="#3A83F6"/>
<path d="M8.42244 15.5205L8.40922 10.0148L5.68548 14.5505H4.72027L2.00975 10.1327V15.5205H0V6.34424H1.77175L5.23593 12.0467L8.64722 6.34424H10.4058L10.4322 15.5205H8.42244Z" fill="white"/>
<path d="M19.7944 13.8164V15.5205H12.6281V6.34424H19.6225V8.04841H14.7568V10.041H19.054V11.6927H14.7568V13.8164H19.7944Z" fill="white"/>
<path d="M28.3383 6.34432C29.1581 6.34432 29.8677 6.47978 30.4671 6.7507C31.0753 7.02162 31.5425 7.40615 31.8686 7.90429C32.1947 8.40243 32.3578 8.99234 32.3578 9.67401C32.3578 10.3469 32.1947 10.9368 31.8686 11.4437C31.5425 11.9419 31.0753 12.3264 30.4671 12.5973C29.8677 12.8595 29.1581 12.9906 28.3383 12.9906H26.474V15.5206H24.332V6.34432H28.3383ZM28.2193 11.2602C28.8628 11.2602 29.352 11.1247 29.687 10.8538C30.0219 10.5742 30.1894 10.1809 30.1894 9.67401C30.1894 9.15839 30.0219 8.76512 29.687 8.4942C29.352 8.21454 28.8628 8.07471 28.2193 8.07471H26.474V11.2602H28.2193Z" fill="#3A83F6"/>
<path d="M39.5176 13.5543H35.2204L34.4006 15.5206H32.2058L36.331 6.34432H38.4466L42.5851 15.5206H40.3373L39.5176 13.5543ZM38.8432 11.9419L37.3756 8.42865L35.9079 11.9419H38.8432Z" fill="#3A83F6"/>
<path d="M49.6702 10.7883H51.6271V14.5112C51.1246 14.887 50.5429 15.1754 49.8818 15.3764C49.2207 15.5774 48.5552 15.6779 47.8852 15.6779C46.9244 15.6779 46.0606 15.4769 45.2937 15.0749C44.5268 14.6642 43.923 14.1005 43.4823 13.3839C43.0504 12.6585 42.8344 11.8414 42.8344 10.9325C42.8344 10.0236 43.0504 9.21082 43.4823 8.4942C43.923 7.76883 44.5313 7.20514 45.3069 6.80313C46.0826 6.39239 46.9553 6.18701 47.9249 6.18701C48.7359 6.18701 49.4719 6.32247 50.133 6.59339C50.7941 6.86431 51.3494 7.25758 51.799 7.7732L50.4239 9.03167C49.7628 8.34126 48.965 7.99605 48.0307 7.99605C47.4401 7.99605 46.9156 8.11841 46.4573 8.36311C45.9989 8.60781 45.6419 8.95301 45.3863 9.39872C45.1307 9.84442 45.0028 10.3557 45.0028 10.9325C45.0028 11.5005 45.1307 12.0074 45.3863 12.4531C45.6419 12.8988 45.9945 13.2484 46.444 13.5018C46.9024 13.7465 47.4225 13.8689 48.0042 13.8689C48.6213 13.8689 49.1766 13.7378 49.6702 13.4756V10.7883Z" fill="#3A83F6"/>
<path d="M60.7831 13.8165V15.5206H53.6168V6.34432H60.6113V8.04849H55.7455V10.0411H60.0427V11.6928H55.7455V13.8165H60.7831Z" fill="#3A83F6"/>
</svg>
